<?xml version="1.0" standalone="no"?>
<!DOCTYPE svg PUBLIC "-//W3C//DTD SVG 20010904//EN"
 "http://www.w3.org/TR/2001/REC-SVG-20010904/DTD/svg10.dtd">
<svg version="1.0" xmlns="http://www.w3.org/2000/svg"
 width="300.000000pt" height="300.000000pt" viewBox="0 0 300.000000 300.000000"
 preserveAspectRatio="xMidYMid meet">
<metadata>
Created by potrace 1.10, written by Peter Selinger 2001-2011
</metadata>
<g transform="translate(0.000000,300.000000) scale(0.100000,-0.100000)"
fill="#000000" stroke="none">
<path d="M1156 2796 c-20 -27 -37 -37 -77 -45 -28 -6 -55 -9 -60 -5 -5 3 -9 0
-9 -5 0 -6 -5 -11 -11 -11 -6 0 -8 8 -5 18 5 13 2 12 -12 -4 -10 -12 -31 -28
-48 -37 -16 -9 -60 -50 -99 -92 -131 -145 -135 -148 -172 -142 -23 4 -33 2
-33 -8 0 -15 39 -65 40 -50 0 15 40 13 40 -2 0 -7 -7 -10 -17 -7 -15 5 -15 4
-4 -4 12 -9 13 -15 3 -36 -6 -14 -9 -26 -7 -26 3 0 16 24 29 53 12 28 30 58
39 66 19 15 23 36 5 25 -6 -4 0 13 14 37 13 24 30 43 36 42 7 -2 9 4 5 14 -4
10 -2 14 4 10 6 -4 14 0 17 9 3 8 10 13 14 10 13 -8 2 -63 -14 -77 -8 -6 -14
-19 -14 -27 0 -13 3 -12 15 4 14 19 14 19 14 -1 0 -11 -6 -38 -14 -60 -21 -59
-17 -68 6 -12 10 26 20 63 22 82 1 18 5 31 8 29 3 -2 16 10 28 27 17 23 28 28
44 24 16 -5 18 -4 8 3 -11 8 -11 11 0 16 8 3 4 4 -8 2 -35 -6 -28 3 20 25 23
11 31 18 18 15 -21 -4 -20 -2 10 24 19 16 45 32 59 35 14 4 41 16 60 28 19 12
41 20 49 19 9 -2 12 2 8 12 -4 9 -3 16 2 16 5 0 11 9 14 20 7 27 4 25 -27 -14z
m-119 -73 c-11 -3 -26 -11 -35 -19 -82 -70 -102 -90 -102 -99 0 -6 -10 -19
-21 -29 -21 -18 -22 -18 -17 0 3 11 9 28 14 38 5 14 4 17 -5 11 -10 -6 -11 -3
-1 14 18 34 106 86 148 87 20 1 29 0 19 -3z m-291 -236 c-1 -6 -8 -21 -16 -32
-17 -22 -71 -27 -78 -7 -2 7 6 12 21 12 14 0 35 9 48 20 29 23 28 23 25 7z"/>
<path d="M1241 2799 c-42 -14 -60 -24 -51 -29 9 -6 7 -10 -9 -15 -11 -3 -35
-18 -51 -32 -20 -16 -38 -23 -51 -20 -12 3 -18 3 -15 0 7 -8 -13 -33 -26 -33
-6 0 -4 8 3 18 13 15 12 16 -4 3 -9 -8 -15 -16 -13 -19 3 -2 -4 -16 -14 -30
-11 -13 -20 -32 -20 -42 0 -9 -18 -31 -40 -49 -38 -30 -78 -83 -50 -66 9 5 10
1 5 -16 -5 -18 -4 -21 4 -9 6 8 8 23 5 33 -3 9 -1 17 4 17 5 0 23 13 40 30 19
18 34 25 38 19 3 -6 12 1 20 16 18 34 18 36 -2 28 -25 -10 -12 18 17 37 81 50
99 63 99 71 0 5 4 9 10 9 19 0 80 48 68 53 -7 3 3 3 22 0 27 -3 31 -2 20 6
-19 14 3 15 28 2 10 -5 33 -6 52 -1 34 8 34 8 -15 10 -41 2 -45 3 -25 10 36
11 132 12 125 1 -9 -15 12 -23 69 -27 30 -2 65 -8 80 -13 14 -6 32 -8 40 -5
19 7 88 -29 139 -74 23 -20 36 -29 28 -19 -19 24 -2 21 25 -4 26 -24 104 -43
118 -28 6 5 -6 9 -31 9 -27 0 -51 8 -74 25 -19 14 -78 47 -132 74 -58 29 -93
51 -85 55 7 3 -7 4 -32 1 -25 -3 -69 2 -100 10 -74 20 -142 18 -219 -6z"/>
<path d="M1420 2745 c-8 -9 -23 -12 -43 -9 l-32 5 34 -15 c39 -19 44 -19 36
-6 -4 6 11 10 39 8 25 0 43 -5 41 -9 -3 -4 4 -5 16 -2 32 9 7 25 -39 27 -22 0
-38 4 -36 8 9 14 -3 9 -16 -7z"/>
<path d="M1626 2732 c-3 -5 11 -15 31 -23 20 -7 58 -38 84 -68 27 -30 49 -49
49 -42 0 7 13 1 33 -15 17 -15 31 -33 29 -41 -2 -7 3 -13 9 -13 7 0 9 3 6 7
-4 3 -2 12 4 20 9 10 8 13 -1 13 -7 0 -28 11 -47 26 -18 14 -33 23 -33 21 0
-2 -23 17 -51 43 -59 55 -105 84 -113 72z"/>
<path d="M1547 2711 c6 -25 31 -47 61 -54 33 -8 27 1 -13 17 -19 8 -35 20 -35
26 0 16 37 4 81 -26 40 -28 51 -30 43 -9 -6 15 -72 49 -116 59 -22 5 -25 3
-21 -13z"/>
<path d="M1171 2701 c-27 -17 0 -33 43 -26 49 8 72 25 34 25 -15 0 -30 -4 -33
-10 -3 -5 -16 -10 -28 -10 -17 0 -19 2 -7 10 8 5 12 11 9 14 -2 3 -11 1 -18
-3z"/>
<path d="M1270 2675 c-9 -17 -16 -22 -21 -13 -4 7 -10 -4 -15 -27 -6 -33 -4
-40 17 -56 27 -20 62 -32 53 -18 -3 5 -12 9 -19 9 -8 0 -22 11 -31 25 -16 24
-16 27 2 48 27 31 37 37 52 32 7 -3 10 -1 7 4 -3 5 3 12 12 14 10 3 4 5 -13 6
-23 1 -34 -5 -44 -24z"/>
<path d="M1495 2688 c5 -12 0 -18 -17 -21 -13 -2 -8 -3 10 -1 18 1 30 -1 27
-7 -4 -5 1 -9 10 -9 28 0 105 -87 105 -119 0 -28 33 -81 50 -81 5 0 -2 12 -17
26 -19 19 -24 33 -21 56 4 25 -2 37 -31 67 -20 20 -48 45 -61 55 -14 10 -33
26 -43 34 -16 14 -17 14 -12 0z"/>
<path d="M1082 2641 c-15 -14 -30 -25 -35 -23 -5 1 -6 -2 -2 -8 10 -16 51 -12
66 7 13 15 12 15 -9 4 -13 -7 -26 -11 -28 -8 -7 7 27 32 44 32 8 0 17 5 19 11
7 20 -30 11 -55 -15z"/>
<path d="M1181 2639 c-12 -10 -26 -17 -30 -14 -4 2 -8 -2 -8 -9 0 -10 6 -10
28 1 28 14 45 31 38 38 -2 2 -15 -5 -28 -16z"/>
<path d="M1372 2610 c-26 -39 -32 -58 -31 -97 l2 -48 6 51 c4 31 17 68 34 93
16 24 27 44 25 47 -2 2 -18 -19 -36 -46z"/>
<path d="M1729 2603 c6 -12 24 -31 41 -43 34 -24 41 -47 10 -30 -16 9 -20 8
-20 -5 0 -9 5 -13 10 -10 6 4 17 2 24 -4 20 -16 27 20 10 44 -8 10 -14 15 -14
10 0 -5 -16 7 -36 26 -26 24 -33 28 -25 12z"/>
<path d="M1865 2610 c-3 -5 0 -10 8 -10 8 0 27 -19 43 -42 25 -36 29 -51 29
-109 0 -37 3 -71 8 -75 4 -4 7 14 7 41 0 27 2 46 4 44 6 -6 20 -140 18 -169
-1 -14 -2 -38 -2 -53 -1 -15 -5 -25 -10 -22 -5 3 -11 1 -15 -5 -3 -5 19 -36
49 -67 30 -31 54 -59 52 -61 -7 -6 -77 36 -91 55 -12 16 -14 16 -15 2 0 -9 7
-22 15 -29 8 -7 16 -24 16 -39 1 -18 3 -20 6 -8 7 26 28 14 25 -14 -1 -13 -3
-45 -4 -70 l-2 -46 -29 27 c-25 23 -28 30 -18 48 6 11 11 31 10 44 0 13 -3 17
-6 10 -2 -6 -10 -9 -16 -5 -7 4 -6 -1 2 -10 7 -9 9 -17 3 -17 -5 0 -13 -11
-16 -24 -3 -14 -18 -39 -33 -56 -29 -35 -37 -30 -48 27 -3 17 -10 42 -15 55
-9 20 -10 18 -5 -13 3 -20 1 -47 -5 -60 -9 -23 -10 -23 -8 6 0 17 -4 43 -11
58 -6 16 -11 32 -11 37 0 4 -7 23 -15 41 l-14 34 -1 -33 c0 -20 4 -31 10 -27
6 4 10 -9 9 -32 -1 -38 -1 -38 -9 -8 -7 28 -8 28 -9 5 -1 -24 -2 -24 -21 8
-16 26 -19 45 -15 90 3 38 2 47 -3 27 l-8 -30 -7 30 c-3 17 -9 45 -13 64 -7
34 -35 71 -54 71 -5 0 -10 10 -11 23 0 21 -1 21 -11 -3 -6 -14 -10 -28 -10
-32 1 -5 -2 -8 -7 -8 -11 0 6 -59 21 -75 7 -6 7 10 3 45 -7 54 -7 55 12 38 20
-18 44 -114 49 -198 1 -25 7 -56 13 -70 l11 -25 -5 28 c-9 44 10 31 28 -20 9
-27 14 -35 11 -19 l-5 30 20 -25 c18 -21 20 -21 15 -4 -4 14 -1 13 9 -5 11
-18 15 -56 15 -125 1 -92 14 -178 32 -198 4 -4 10 32 13 80 6 97 16 132 53
180 33 43 56 42 78 -4 32 -66 32 -181 1 -303 -45 -179 -72 -209 -107 -120 -17
41 -18 42 -12 10 4 -19 15 -53 24 -75 10 -22 21 -71 24 -110 4 -38 16 -99 28
-134 15 -47 19 -78 15 -118 -7 -62 -29 -98 -118 -183 l-57 -55 4 90 c3 81 2
87 -9 55 -7 -19 -23 -55 -36 -80 -21 -40 -21 -43 -4 -27 28 25 33 22 33 -21 0
-30 -9 -47 -43 -87 -58 -66 -173 -219 -179 -236 -3 -10 -13 -7 -37 14 -18 15
-36 27 -40 27 -3 0 -40 31 -81 69 -75 69 -97 83 -64 39 15 -20 119 -109 179
-153 20 -15 20 -15 -2 -32 -12 -11 -44 -77 -77 -162 -31 -80 -60 -149 -66
-155 -10 -10 -17 139 -9 194 8 53 2 166 -10 188 -9 17 -18 21 -33 16 -20 -6
-21 -4 -14 62 4 38 8 75 8 82 1 8 19 12 55 12 74 0 114 19 189 92 75 72 198
221 242 293 41 67 68 163 75 260 6 85 -2 62 -22 -65 -16 -101 -75 -207 -193
-350 -120 -145 -172 -192 -228 -209 -53 -16 -130 -5 -130 18 0 23 -79 103
-149 151 -71 47 -78 56 -51 65 25 8 25 21 0 63 -23 37 -20 38 44 16 26 -9 50
-14 53 -11 5 6 -90 37 -113 37 -7 0 -25 24 -42 53 -43 77 -65 100 -94 100 -18
0 -31 10 -49 38 -15 24 -37 44 -57 51 -44 16 -56 63 -47 188 6 92 5 98 -29
187 l-36 92 1 170 c0 155 2 169 17 164 13 -4 14 -3 4 5 -11 8 -10 16 6 48 11
22 29 48 41 58 21 19 22 19 54 -11 35 -34 68 -53 89 -53 7 1 0 7 -17 14 -16 7
-39 24 -50 36 -20 23 -20 23 0 16 11 -5 54 -10 95 -13 l75 -4 -42 20 c-24 11
-51 34 -62 51 -12 20 -21 27 -26 20 -4 -6 0 -21 8 -34 15 -22 14 -22 -27 -20
-22 2 -43 4 -46 5 -3 1 -8 1 -12 0 -4 0 -12 14 -17 32 l-9 32 -1 -34 c-1 -24
-5 -32 -15 -28 -16 7 -56 -28 -56 -48 0 -8 -4 -15 -10 -15 -5 0 -10 -13 -10
-29 0 -17 -5 -33 -12 -37 -6 -4 -8 -3 -4 4 3 6 7 39 8 74 0 43 3 57 9 43 5
-13 6 -6 3 20 -4 34 0 49 30 95 40 61 50 93 11 36 -13 -20 -35 -50 -47 -67
-20 -26 -22 -41 -21 -111 1 -52 -2 -77 -8 -67 -11 18 -11 5 0 -43 6 -26 5 -37
-2 -35 -6 1 -12 -7 -14 -18 -3 -16 -2 -17 6 -5 7 10 9 -1 8 -38 -2 -29 0 -52
4 -52 4 0 5 -9 2 -19 -4 -16 -8 -17 -18 -8 -7 7 -11 14 -9 16 2 2 -2 11 -8 19
-8 9 -12 45 -11 96 1 68 0 74 -6 36 -5 -25 -6 -51 -4 -57 3 -7 1 -13 -5 -13
-5 0 -10 -16 -9 -36 1 -24 -5 -41 -16 -49 -21 -15 -22 -25 -2 -25 9 0 20 12
25 26 10 26 11 25 41 -30 16 -31 34 -79 39 -107 5 -27 24 -82 41 -122 31 -70
32 -76 33 -222 1 -147 0 -151 -25 -185 -14 -19 -32 -46 -39 -60 -13 -24 -14
-23 -35 40 -12 36 -24 81 -28 101 -5 32 -2 39 24 58 34 26 37 43 8 63 -21 13
-21 15 -5 47 23 43 23 104 1 138 -29 46 -68 83 -87 83 -20 0 -24 -14 -33 -114
-4 -38 -18 -101 -32 -140 -13 -39 -25 -79 -26 -88 -1 -9 -4 -15 -8 -12 -4 2
-12 -3 -19 -11 -7 -9 -81 -56 -164 -105 -105 -63 -155 -99 -163 -117 -18 -38
-17 -41 17 -48 24 -5 39 1 82 33 89 66 221 143 228 135 21 -23 90 -288 90
-345 0 -23 11 -41 48 -75 26 -25 42 -47 36 -49 -6 -3 -47 -29 -90 -59 -44 -29
-119 -78 -169 -108 -54 -34 -118 -85 -161 -129 l-72 -73 -50 -175 c-28 -96
-53 -200 -56 -230 -9 -77 10 -43 24 45 6 37 30 134 53 214 l43 146 74 71 c41
40 104 90 140 111 36 22 114 72 174 112 l108 71 37 -22 c58 -35 204 -144 234
-176 l28 -29 -63 1 -63 1 -7 -100 c-3 -55 -14 -125 -23 -155 -10 -30 -18 -73
-20 -95 -2 -43 -39 -173 -61 -217 -8 -16 -10 -28 -5 -28 18 0 88 215 80 246
-2 5 7 52 19 104 12 52 25 126 28 164 l6 69 101 -7 c56 -4 126 -9 155 -12 l52
-6 0 -78 c0 -88 -32 -206 -74 -275 -46 -75 -87 -157 -82 -163 3 -3 6 -1 6 5 0
5 26 52 57 104 70 116 103 217 106 319 l2 77 75 -1 c41 0 78 -5 82 -11 13 -18
9 -160 -6 -209 -12 -41 -12 -45 0 -35 12 10 13 6 8 -22 -3 -19 -8 -40 -10 -47
-2 -7 0 -11 5 -8 4 3 11 -30 15 -74 8 -95 16 -140 25 -140 4 0 3 29 -2 65 -9
64 -8 69 27 145 20 44 36 84 36 89 0 27 21 16 43 -21 14 -24 36 -54 50 -67 24
-22 27 -22 49 -7 12 9 18 16 12 16 -5 0 -16 -6 -23 -12 -13 -14 -21 -6 -81 79
-31 43 -37 67 -20 78 6 4 8 11 5 16 -4 5 -1 9 4 9 6 0 11 8 11 19 0 29 39 71
66 71 14 0 54 -23 94 -52 78 -59 77 -52 30 -155 l-29 -62 26 -53 c14 -29 34
-78 44 -108 10 -30 18 -47 18 -37 1 20 -54 164 -70 183 -6 8 1 30 21 69 16 31
30 66 30 76 0 10 4 19 9 19 5 0 60 -41 122 -91 99 -79 189 -139 189 -125 0 2
-15 13 -33 23 -37 23 -363 282 -431 344 -15 14 158 231 306 384 42 44 85 98
94 120 17 41 21 114 6 124 -5 3 -13 25 -19 49 -15 59 4 55 44 -11 17 -29 53
-77 79 -107 l47 -55 -6 -150 c-4 -109 -13 -181 -32 -265 -21 -91 -27 -149 -31
-280 -2 -91 -6 -171 -9 -178 -2 -6 0 -12 5 -12 13 0 13 3 15 175 2 122 7 173
28 270 36 159 53 333 40 406 l-9 56 74 -28 c41 -16 125 -44 187 -63 101 -32
302 -134 355 -181 23 -19 131 -75 147 -75 8 0 36 -21 63 -46 28 -26 50 -42 50
-36 0 17 -70 73 -116 92 -23 10 -85 45 -136 78 -162 103 -239 140 -408 196
-263 88 -240 73 -327 199 -25 37 -52 67 -59 67 -12 0 -16 20 -29 127 -6 43 -3
56 14 80 12 16 35 78 51 138 28 104 37 209 30 370 0 11 2 43 5 70 l6 50 42 -3
42 -3 -39 23 c-21 13 -38 26 -37 31 1 4 -5 20 -13 35 -8 15 -16 61 -19 102 -6
81 -32 212 -48 241 -9 17 -7 17 26 4 56 -24 63 -17 9 10 -28 14 -63 42 -80 65
-30 41 -39 47 -49 30z m137 -450 c-7 -11 -22 27 -17 45 2 11 6 34 7 50 1 17 4
3 7 -30 3 -33 5 -62 3 -65z m-151 -280 l-6 -55 -7 51 c-4 28 -4 62 -1 75 11
41 20 -9 14 -71z m-1226 -157 c38 -41 40 -63 21 -208 -17 -136 -17 -133 19
-261 4 -11 -3 -57 -14 -101 -27 -107 -26 -111 12 -32 18 36 50 93 72 127 37
57 43 62 77 62 29 0 41 -6 56 -27 37 -54 37 -56 9 -49 -22 5 -33 -3 -89 -67
-156 -177 -172 -217 -106 -272 l23 -20 -17 21 c-23 27 -23 34 3 34 11 0 17 -4
14 -10 -3 -5 -1 -10 4 -10 6 0 11 9 11 20 0 16 -7 20 -35 20 -28 0 -33 3 -28
18 11 31 39 60 148 157 132 117 140 119 199 28 107 -164 110 -173 52 -173 -61
1 -97 56 -72 113 5 9 4 17 -1 17 -5 0 -14 -13 -20 -29 -9 -24 -15 -29 -34 -25
-22 5 -22 4 4 -11 31 -18 31 -19 16 -48 -9 -18 -9 -20 1 -10 7 6 20 9 29 6 35
-13 192 -125 246 -177 l57 -54 -2 -69 c-1 -37 -3 -83 -4 -102 l-1 -34 -70 7
c-38 4 -106 12 -150 19 -78 12 -82 14 -140 69 -74 70 -148 127 -198 153 -40
21 -90 68 -87 82 0 4 -9 10 -21 13 -27 7 -42 50 -34 98 8 44 -4 109 -17 90 -7
-9 -8 -4 -4 15 4 15 2 27 -3 27 -5 0 -9 8 -9 18 0 9 -9 63 -21 119 l-21 103
30 100 c16 56 32 131 35 168 11 124 16 131 60 85z m45 -163 l-11 -25 6 25 c2
14 6 43 7 65 l1 40 4 -40 c2 -23 -1 -52 -7 -65z m-183 -199 c-2 -27 -39 -62
-72 -67 -21 -3 -75 -41 -68 -48 4 -4 0 -4 -9 -1 -9 4 -19 1 -24 -6 -5 -8 -3
-10 6 -4 8 5 11 4 6 -3 -4 -6 -13 -9 -20 -6 -8 3 -17 0 -22 -7 -5 -8 -3 -10 6
-4 8 5 11 4 6 -3 -4 -6 -13 -9 -20 -6 -8 3 -23 -6 -34 -21 -18 -23 -22 -24
-35 -10 -18 17 -37 20 -37 5 0 -5 5 -10 10 -10 6 0 10 -9 10 -20 0 -21 -16
-26 -38 -11 -27 17 12 51 153 136 77 47 149 92 159 100 26 20 26 20 23 -14z
m13 -55 c0 -7 2 -29 5 -47 l5 -34 -14 35 c-18 42 -19 60 -6 60 6 0 10 -6 10
-14z m354 -117 c-16 -17 -47 -45 -69 -62 l-40 -31 40 45 c35 40 81 78 94 79 3
0 -8 -14 -25 -31z"/>
<path d="M923 1156 c-10 -13 -36 -49 -58 -80 -29 -41 -50 -59 -80 -70 -111
-41 -121 -45 -96 -46 13 0 51 10 84 22 50 18 66 31 106 81 25 33 56 70 67 83
20 21 21 34 3 34 -4 0 -16 -11 -26 -24z"/>
<path d="M990 2528 c0 -6 3 -8 6 -5 4 3 15 -5 26 -18 11 -14 25 -25 31 -24 8
0 7 2 -1 6 -7 3 -17 16 -22 29 -10 24 -40 34 -40 12z"/>
<path d="M1803 2473 c14 -16 16 -26 9 -40 -7 -13 -6 -24 4 -38 8 -10 14 -14
14 -8 0 7 -4 14 -10 18 -5 3 -7 12 -3 21 4 12 8 12 21 2 13 -11 14 -10 4 8 -6
12 -9 24 -7 28 3 3 2 4 -2 1 -3 -3 -16 3 -27 12 -21 18 -21 18 -3 -4z"/>
<path d="M889 2425 c-6 -25 17 -85 40 -102 9 -8 38 -25 64 -39 67 -35 82 -86
34 -119 -12 -8 -18 -17 -15 -20 13 -13 49 22 70 65 12 25 23 47 24 49 2 2 15
-6 29 -17 14 -11 40 -24 58 -27 18 -4 40 -9 50 -11 9 -3 17 -1 17 5 0 6 -5 11
-12 11 -25 0 -78 52 -87 87 -17 62 -4 65 77 19 98 -55 117 -93 60 -116 -21 -8
-21 -9 -3 -9 17 -1 16 -4 -8 -20 -16 -10 -29 -22 -29 -27 1 -5 -7 -18 -16 -28
-16 -18 -16 -18 6 -7 12 6 22 17 22 24 0 8 16 21 36 30 24 12 41 30 54 60 21
46 28 85 10 57 -9 -13 -10 -13 -10 0 0 34 21 40 61 17 42 -24 47 -41 23 -75
-27 -38 -8 -36 22 2 25 30 30 33 36 18 3 -9 7 10 7 43 0 59 0 59 -14 30 -7
-16 -14 -24 -14 -16 -1 7 -7 11 -15 8 -7 -3 -18 -1 -23 4 -5 5 -24 14 -42 19
-30 8 -33 7 -46 -23 -8 -18 -14 -26 -15 -18 0 8 -3 12 -6 8 -4 -3 -21 5 -38
18 -26 20 -111 62 -133 66 -4 0 -14 -14 -23 -33 -14 -28 -14 -38 -3 -65 15
-37 2 -44 -20 -12 l-15 21 -7 -21 c-8 -25 -28 -27 -49 -6 -8 8 -19 15 -25 15
-6 0 -26 14 -45 30 -23 21 -36 26 -38 18 -6 -18 -30 28 -38 72 -5 26 -8 30
-11 15z"/>
<path d="M1780 2416 c0 -8 -15 -30 -32 -49 -26 -27 -30 -37 -20 -46 9 -9 12
-8 12 5 0 9 11 29 25 46 22 26 33 58 20 58 -3 0 -5 -6 -5 -14z"/>
<path d="M633 2364 c-10 -23 -18 -68 -19 -109 -1 -38 -4 -99 -7 -135 l-6 -65
11 68 c12 75 24 86 33 30 16 -95 22 -82 15 27 -4 47 -7 70 -8 52 -1 -18 -6
-31 -11 -28 -13 8 7 106 30 144 22 38 23 42 10 42 -9 0 -30 -50 -51 -120 -9
-33 -10 -32 -5 14 3 27 12 63 20 79 8 17 13 32 10 35 -3 3 -13 -12 -22 -34z"/>
<path d="M1528 2328 c17 -17 15 -89 -4 -116 -24 -34 1 -26 40 13 21 21 33 41
30 50 -4 8 -10 12 -15 9 -5 -3 -17 8 -27 25 -9 17 -21 31 -26 31 -6 0 -5 -5 2
-12z"/>
<path d="M1819 2335 c-7 -54 -7 -75 1 -80 6 -3 7 1 4 10 -4 8 -1 22 6 30 8 10
9 19 1 32 -6 10 -11 14 -12 8z"/>
<path d="M1904 2332 c5 -8 1 -22 -11 -34 -10 -12 -12 -18 -4 -13 9 5 22 -2 38
-21 l25 -29 -21 32 c-23 34 -27 48 -11 38 17 -10 11 12 -7 26 -13 11 -15 11
-9 1z"/>
<path d="M1811 2225 c-5 -37 1 -79 15 -99 9 -14 10 -25 3 -40 -9 -19 -9 -19 3
-4 13 15 15 15 25 0 9 -13 10 -9 2 18 -5 19 -10 51 -10 70 l-2 35 -7 -40 c-8
-47 -18 -32 -23 35 -2 25 -5 36 -6 25z"/>
<path d="M1915 2210 c-14 -16 -20 -18 -27 -8 -5 8 -7 -7 -6 -37 2 -38 7 -51
21 -53 13 -3 17 3 17 30 0 25 -3 29 -10 18 -8 -13 -10 -12 -10 3 0 9 4 17 8
17 5 0 14 11 20 25 14 30 11 31 -13 5z"/>
<path d="M860 2166 c0 -2 17 -15 38 -29 28 -18 39 -21 39 -11 0 8 -1 14 -2 14
-2 0 -19 7 -39 15 -20 8 -36 14 -36 11z"/>
<path d="M1897 2064 c-20 -27 -5 -33 20 -8 9 9 12 19 7 24 -5 5 -17 -2 -27
-16z"/>
<path d="M1440 1906 c-25 -6 -66 -26 -93 -44 -26 -18 -73 -46 -104 -62 -48
-24 -54 -30 -33 -31 14 -1 34 -1 44 0 22 2 147 63 187 92 14 10 59 27 100 38
l74 19 -65 0 c-36 1 -85 -5 -110 -12z"/>
<path d="M1924 1855 c-26 -45 -51 -141 -40 -153 3 -3 6 4 6 16 0 11 4 23 9 26
4 3 11 23 15 45 11 68 46 63 46 -6 0 -22 -5 -33 -14 -33 -14 0 -27 -39 -24
-70 1 -8 0 -26 -1 -40 -3 -25 -3 -25 -16 5 l-14 30 0 -35 c0 -19 6 -57 13 -85
12 -43 14 -46 15 -19 1 17 10 41 21 54 27 31 35 78 34 193 -1 120 -12 136 -50
72z"/>
<path d="M798 1814 c-26 -8 -49 -18 -52 -23 -3 -4 38 -8 92 -7 86 1 103 -2
150 -25 l54 -27 -33 34 c-32 33 -103 65 -143 63 -12 0 -42 -7 -68 -15z"/>
<path d="M1455 1739 c-60 -16 -126 -29 -145 -29 -19 0 -42 -5 -50 -10 -11 -7
-6 -10 21 -10 20 0 42 -7 49 -15 7 -8 29 -15 50 -15 37 0 60 17 73 53 4 9 17
17 29 18 34 1 50 5 83 23 42 22 18 19 -110 -15z"/>
<path d="M1516 1687 c-36 -23 -66 -34 -110 -38 l-61 -6 55 -1 c40 -2 67 4 95
19 22 12 52 28 68 36 15 8 27 16 27 19 0 11 -30 -1 -74 -29z"/>
<path d="M1000 1659 c-25 -4 -76 -8 -115 -9 -62 -1 -67 -3 -45 -13 45 -21 73
-44 58 -49 -7 -3 3 -5 22 -5 19 0 30 2 24 4 -19 6 46 63 71 63 13 0 27 5 30
10 3 6 5 9 3 9 -2 -1 -23 -5 -48 -10z"/>
<path d="M1070 1644 c0 -11 -4 -25 -10 -32 -7 -9 -7 -9 2 -2 20 17 25 12 32
-34 4 -27 1 -69 -9 -111 -16 -72 -19 -117 -4 -75 6 18 8 10 5 -30 -3 -34 1
-69 10 -89 18 -43 12 -49 -15 -15 -14 17 -19 34 -15 47 4 13 2 17 -5 13 -6 -4
-11 -15 -11 -24 0 -23 48 -74 62 -66 7 5 9 1 5 -9 -4 -11 1 -20 14 -27 19 -10
18 -8 -5 38 -24 48 -25 56 -23 219 2 146 0 171 -15 193 -17 22 -18 23 -18 4z"/>
<path d="M1730 1508 c-3 -31 -1 -53 3 -49 5 5 7 30 5 57 l-3 49 -5 -57z"/>
<path d="M1722 1404 c-1 -17 -20 -80 -41 -140 -54 -151 -55 -153 -42 -132 26
39 92 244 88 273 l-4 30 -1 -31z"/>
<path d="M1247 1234 c-38 -21 -30 -26 16 -10 20 7 34 16 30 19 -9 9 -14 9 -46
-9z"/>
<path d="M1841 1095 c-2 -5 -4 -39 -6 -75 -3 -59 -2 -61 6 -25 8 34 8 129 0
100z"/>
<path d="M1255 1040 c-14 -7 -3 -8 40 -4 54 5 216 -8 262 -21 10 -3 2 2 -17
11 -41 20 -253 30 -285 14z"/>
<path d="M1220 960 c8 -5 32 -10 53 -10 20 0 37 -4 37 -9 0 -5 8 -12 18 -15
10 -4 6 4 -11 19 -21 18 -39 25 -70 25 -31 0 -38 -3 -27 -10z"/>
<path d="M1707 953 c-14 -50 -16 -72 -8 -77 4 -3 11 15 15 41 6 47 2 70 -7 36z"/>
<path d="M1970 915 c-12 -13 -26 -23 -29 -22 -4 1 -50 -38 -102 -87 -56 -53
-81 -81 -61 -70 39 22 147 120 147 134 0 4 4 12 8 17 5 4 7 3 5 -3 -6 -21 16
-10 41 19 29 35 23 46 -9 12z"/>
<path d="M2276 910 c11 -11 367 -171 371 -166 2 1 -20 15 -47 30 -61 33 -337
149 -324 136z"/>
<path d="M2250 899 c0 -2 6 -24 14 -48 11 -40 13 -42 18 -20 3 16 -2 35 -14
49 -10 12 -18 21 -18 19z"/>
<path d="M1926 699 c-3 -17 -2 -38 4 -47 7 -13 9 -5 10 31 0 54 -5 60 -14 16z"/>
<path d="M488 617 c-17 -13 -34 -42 -43 -72 -16 -55 -20 -110 -5 -65 5 14 14
44 20 67 6 24 23 54 38 68 33 31 27 33 -10 2z"/>
<path d="M2417 577 c-46 -60 -113 -167 -104 -167 2 0 23 27 46 60 38 53 62 74
61 53 -2 -21 -27 -101 -39 -123 -13 -23 -13 -24 2 -11 10 7 17 9 17 3 0 -17
60 -145 65 -140 3 3 -9 38 -27 78 l-32 72 23 92 c13 50 30 103 38 119 23 46 1
30 -50 -36z"/>
<path d="M2837 538 c-24 -57 -48 -113 -51 -126 -4 -12 -11 -20 -16 -17 -4 3
-6 -5 -3 -17 4 -19 3 -20 -6 -8 -9 12 -10 9 -5 -15 4 -20 3 -26 -4 -17 -13 18
-23 -20 -16 -62 4 -26 3 -28 -6 -11 -7 15 -8 10 -3 -20 7 -46 13 -58 13 -25 0
30 59 205 102 302 l34 77 25 -16 c13 -9 36 -27 52 -41 15 -14 27 -20 27 -14 0
7 -22 28 -49 48 -32 23 -48 40 -44 50 3 8 3 14 0 14 -3 0 -25 -46 -50 -102z"/>
<path d="M1960 577 c0 -28 4 -46 9 -42 6 3 12 -12 14 -32 2 -21 3 -9 0 26 -5
81 -22 117 -23 48z"/>
<path d="M2120 607 c0 -12 32 -107 36 -107 3 0 1 12 -2 28 -8 32 -33 91 -34
79z"/>
<path d="M2610 515 c-29 -67 -32 -82 -28 -143 3 -38 11 -77 17 -88 12 -18 12
-18 6 1 -4 11 -9 52 -12 90 -4 63 -2 77 26 139 17 38 30 71 28 73 -2 2 -19
-30 -37 -72z"/>
<path d="M2710 569 c0 -5 -11 -34 -25 -64 -36 -75 -48 -161 -40 -285 7 -117
23 -220 36 -220 4 0 3 15 -3 33 -5 17 -12 111 -15 207 -4 143 -2 181 10 210
l15 35 1 -39 c1 -49 7 -44 14 12 3 23 1 40 -4 36 -5 -3 -6 2 -3 10 3 9 10 13
15 10 5 -3 9 11 9 30 0 20 -2 36 -5 36 -3 0 -5 -5 -5 -11z"/>
<path d="M354 489 c3 -31 3 -59 -1 -63 -19 -18 -5 -47 76 -154 48 -65 105
-143 126 -174 21 -32 40 -58 42 -58 10 0 -51 93 -140 212 -90 122 -98 135 -92
166 4 24 10 32 21 28 19 -7 18 -5 -12 51 l-25 48 5 -56z"/>
<path d="M557 450 c-4 -14 -6 -54 -6 -90 1 -36 3 -56 6 -45 15 73 12 69 33 50
22 -20 28 -7 8 13 -7 7 -18 32 -24 55 -9 38 -11 40 -17 17z"/>
<path d="M271 392 c-1 -13 6 -36 14 -53 9 -16 13 -34 10 -38 -3 -5 -1 -11 3
-13 5 -1 31 -46 60 -98 28 -52 67 -113 87 -135 l36 -40 -31 41 c-17 23 -32 48
-34 57 -1 8 -20 44 -43 78 -83 131 -83 146 0 58 69 -73 59 -54 -17 31 -27 30
-57 73 -67 95 -14 32 -18 35 -18 17z"/>
<path d="M2693 335 c0 -38 2 -53 4 -32 2 20 2 52 0 70 -2 17 -4 1 -4 -38z"/>
<path d="M2811 380 c0 -8 6 -53 14 -100 l15 -85 -4 75 c-4 63 -24 155 -25 110z"/>
<path d="M2960 375 c-7 -8 -10 -15 -6 -15 3 0 -4 -21 -18 -47 -29 -58 -56
-147 -55 -182 0 -14 9 6 19 45 10 40 30 95 45 123 14 29 23 56 20 61 -3 5 0 7
8 4 8 -3 17 2 20 10 8 21 -16 21 -33 1z"/>
<path d="M1240 355 c-13 -14 -20 -25 -16 -25 5 0 0 -12 -10 -27 -14 -23 -14
-25 -1 -15 13 11 59 92 52 92 -1 0 -12 -11 -25 -25z"/>
<path d="M196 317 c8 -24 38 -73 67 -108 28 -35 62 -84 75 -109 12 -25 20 -34
16 -20 l-7 24 29 -18 c28 -18 27 -17 -5 18 -19 20 -31 36 -27 36 5 0 3 7 -4
15 -6 8 -17 13 -22 12 -12 -2 -118 147 -118 164 0 7 10 9 28 4 18 -4 24 -3 17
4 -5 5 -22 13 -37 16 l-27 7 15 -45z"/>
<path d="M1029 314 c-10 -12 -10 -20 -1 -35 11 -18 10 -19 -15 -14 -22 4 -23
3 -8 -3 18 -8 18 -10 -10 -25 -17 -9 -26 -16 -21 -17 17 0 106 62 106 74 0 13
-20 36 -31 36 -4 0 -12 -7 -20 -16z m39 -17 c2 -10 -3 -17 -12 -17 -18 0 -29
16 -21 31 9 14 29 6 33 -14z"/>
<path d="M151 234 c-1 -29 20 -97 54 -171 25 -56 31 -63 56 -63 34 0 35 4 10
36 l-20 25 -3 -28 c-4 -26 -5 -25 -26 21 -12 27 -20 56 -17 65 2 9 -8 43 -24
76 -19 38 -30 52 -30 39z"/>
<path d="M2490 198 c0 -15 95 -198 102 -198 5 0 -5 26 -21 58 -39 76 -81 149
-81 140z"/>
<path d="M2758 185 c-16 -49 -29 -138 -21 -144 5 -3 14 -15 19 -26 7 -16 9 -8
12 32 5 77 -1 163 -10 138z"/>
<path d="M1554 85 c0 -50 1 -71 3 -48 2 23 2 64 0 90 -2 26 -3 8 -3 -42z"/>
<path d="M2965 55 c-16 -14 -43 -32 -60 -40 -24 -11 -26 -15 -10 -15 32 0 105
43 105 62 0 22 1 22 -35 -7z"/>
<path d="M2280 50 c0 -5 6 -10 13 -10 7 0 23 -9 35 -20 12 -11 26 -20 33 -20
6 0 -5 13 -26 30 -39 31 -55 37 -55 20z"/>
</g>
</svg>
